<svg class="svg-icon" style="width: 1em; height: 1em;vertical-align: middle;fill: currentColor;overflow: hidden;" viewBox="0 0 1024 1024" version="1.1" xmlns="http://www.w3.org/2000/svg"><path d="M739.500723 111.036145c-87.101687 0-155.697349 101.413012-174.573494 132.503132L533.220241 296.096386a24.674699 24.674699 0 0 1-42.193735 0l-31.583614-51.940241C440.566747 212.449157 371.971084 111.036145 284.869398 111.036145 149.405301 111.036145 61.686747 211.585542 61.686747 367.282892c0 68.102169 50.089639 160.385542 137.314699 252.175421l0.616867 0.740241A2833.272289 2833.272289 0 0 0 488.559036 882.737349L512.246747 900.626506l22.824096-19.246265c48.609157-40.713253 127.81494-114.860723 180.495422-163.963374 32.077108-30.103133 63.537349-59.466024 91.419759-85.12771l1.603856-1.603856C904.697831 530.506024 962.313253 431.807229 962.313253 367.282892 962.313253 226.020241 862.380723 111.036145 739.500723 111.036145z m42.193735 493.493975c-28.005783 25.78506-59.466024 55.147952-91.666506 85.251085-52.186988 49.349398-130.899277 122.633253-178.891566 163.099759a2802.675663 2802.675663 0 0 1-283.759037-259.084337l-0.863614-0.863615C146.567711 509.902651 98.698795 425.14506 98.698795 367.282892 98.698795 232.065542 170.132048 148.048193 284.869398 148.048193c53.914217 0 109.185542 59.342651 142.989879 114.860723l42.193735 69.21253a49.349398 49.349398 0 0 0 84.264096 0l42.193735-69.21253c33.804337-55.518072 89.075663-114.737349 142.98988-114.73735C841.900723 148.048193 925.301205 246.746988 925.301205 367.282892c0 43.057349-37.752289 127.938313-143.606747 237.247228z" fill="#666666" /><path d="M739.500723 49.349398c-89.569157 0-166.554217 69.706024-217.13735 146.19759a12.337349 12.337349 0 0 1-20.356626 0C451.300241 119.055422 374.438554 49.349398 284.869398 49.349398 127.938313 49.349398 0 165.567229 0 367.282892c0 82.536867 51.2 185.800482 154.340241 294.615903 110.295904 119.425542 331.381205 308.433735 358.523373 308.433735s216.150361-183.826506 337.426506-294.86265C963.423614 559.252048 1024 450.066506 1024 367.282892 1024 191.969157 896.308434 49.349398 739.500723 49.349398z m85.374458 599.965301c-28.25253 25.908434-59.959518 55.641446-92.406747 86.361446-74.024096 69.089157-182.099277 170.625542-219.481446 195.176867-50.336386-30.473253-230.831807-185.060241-331.011084-293.752289C88.458795 538.278554 37.012048 442.78747 37.012048 367.282892 37.012048 199.248193 136.697831 86.361446 284.869398 86.361446c67.485301 0 140.645783 54.03759 195.670361 144.346988l10.486747 17.272289a24.674699 24.674699 0 0 0 42.193735 0l10.486747-17.272289C598.85494 140.399036 672.015422 86.361446 739.377349 86.361446 875.951807 86.361446 986.987952 212.325783 986.987952 367.282892c0 72.543614-59.095904 175.560482-162.236145 282.031807z" fill="#666666" /></svg>